<svg width="1098" height="228" viewBox="0 0 1098 228" fill="none" xmlns="http://www.w3.org/2000/svg">
<path fill-rule="evenodd" clip-rule="evenodd" d="M3.8659e-05 165.639L304 165.639L304 227.724L3.32266e-05 227.724L3.8659e-05 165.639Z" fill="#D9D9D9"/>
<path fill-rule="evenodd" clip-rule="evenodd" d="M303.991 152C303.997 151.45 304 150.899 304 150.348C304 67.313 235.947 2.37567e-05 152 1.54167e-05C68.0527 7.07677e-06 -6.68739e-06 67.313 -1.49367e-05 150.348C-1.49915e-05 150.899 0.00300619 151.45 0.00898758 152L56.8814 152C56.8719 151.451 56.8671 150.9 56.8671 150.349C56.8671 98.3794 99.4595 56.2499 152 56.2499C204.54 56.2499 247.133 98.3794 247.133 150.349C247.133 150.9 247.128 151.451 247.118 152L303.991 152Z" fill="#D9D9D9"/>
<path d="M455.17 68.5833V14.8445H480.62C484.259 14.8445 487.36 15.561 489.923 16.994C492.537 18.3759 494.511 20.2695 495.843 22.675C497.176 25.0292 497.842 27.665 497.842 30.5823C497.842 34.1137 497.073 37.1333 495.536 39.6411C494.049 42.1489 491.999 44.0681 489.385 45.3988C486.771 46.6783 483.849 47.318 480.62 47.318H461.628V68.5833H455.17ZM480.927 41.4068C484.156 41.4068 486.668 40.3832 488.462 38.336C490.307 36.2888 491.23 33.7042 491.23 30.5823C491.23 27.5115 490.256 25.106 488.308 23.3659C486.361 21.6258 483.9 20.7557 480.927 20.7557H461.628V41.4068H480.927Z" fill="#D9D9D9"/>
<path d="M552.562 68.5833H515.118V14.8445H551.87V20.7557H521.5V37.7218H548.795V43.4796H521.5V62.672H552.562V68.5833Z" fill="#D9D9D9"/>
<path d="M594.012 69.4277C588.937 69.4277 584.426 68.3018 580.479 66.0499C576.584 63.7468 573.534 60.4968 571.33 56.3001C569.177 52.0522 568.101 47.1389 568.101 41.5603C568.101 36.2376 569.126 31.5035 571.176 27.3579C573.278 23.1612 576.276 19.8857 580.172 17.5314C584.119 15.1771 588.732 14 594.012 14C599.137 14 603.674 15.1515 607.621 17.4546C611.568 19.7065 614.617 22.9309 616.77 27.1276C618.974 31.2732 620.076 36.0841 620.076 41.5603C620.076 46.9342 619.026 51.7451 616.924 55.993C614.822 60.1898 611.798 63.4909 607.851 65.8963C603.956 68.2506 599.342 69.4277 594.012 69.4277ZM594.012 63.5165C597.958 63.5165 601.393 62.6208 604.315 60.8295C607.287 59.0382 609.543 56.5048 611.081 53.2293C612.67 49.9026 613.464 46.013 613.464 41.5603C613.464 37.1589 612.67 33.346 611.081 30.1216C609.492 26.8461 607.236 24.3383 604.315 22.5982C601.393 20.8069 597.958 19.9113 594.012 19.9113C590.116 19.9113 586.707 20.8069 583.786 22.5982C580.864 24.3383 578.609 26.8461 577.02 30.1216C575.482 33.346 574.713 37.1589 574.713 41.5603C574.713 46.013 575.482 49.9026 577.02 53.2293C578.609 56.5048 580.864 59.0382 583.786 60.8295C586.707 62.6208 590.116 63.5165 594.012 63.5165Z" fill="#D9D9D9"/>
<path d="M638.393 68.5833V14.8445H663.843C667.482 14.8445 670.583 15.561 673.146 16.994C675.76 18.3759 677.734 20.2695 679.066 22.675C680.399 25.0292 681.065 27.665 681.065 30.5823C681.065 34.1137 680.297 37.1333 678.759 39.6411C677.272 42.1489 675.222 44.0681 672.608 45.3988C669.994 46.6783 667.072 47.318 663.843 47.318H644.852V68.5833H638.393ZM664.15 41.4068C667.38 41.4068 669.891 40.3832 671.685 38.336C673.531 36.2888 674.453 33.7042 674.453 30.5823C674.453 27.5115 673.479 25.106 671.531 23.3659C669.584 21.6258 667.123 20.7557 664.15 20.7557H644.852V41.4068H664.15Z" fill="#D9D9D9"/>
<path d="M733.632 68.5833H698.341V14.8445H704.8V62.672H733.632V68.5833Z" fill="#D9D9D9"/>
<path d="M788.375 68.5833H750.931V14.8445H787.683V20.7557H757.312V37.7218H784.607V43.4796H757.312V62.672H788.375V68.5833Z" fill="#D9D9D9"/>
<path d="M837.791 68.5833H831.332V14.8445H868.007V20.7557H837.791V38.1825H865.701V44.0937H837.791V68.5833Z" fill="#D9D9D9"/>
<path d="M891.882 68.5833H885.424V14.8445H891.882V68.5833Z" fill="#D9D9D9"/>
<path d="M933.471 69.4277C929.011 69.4277 925.039 68.7112 921.553 67.2782C918.068 65.8451 915.3 63.8491 913.25 61.2901C911.25 58.68 910.148 55.6859 909.943 52.3081H916.709C917.068 55.7371 918.76 58.4752 921.784 60.5224C924.86 62.5696 928.755 63.5932 933.471 63.5932C937.52 63.5932 940.621 62.7999 942.774 61.2134C944.927 59.6268 946.004 57.4261 946.004 54.6112C946.004 52.1545 945.132 50.2609 943.389 48.9302C941.698 47.5995 939.263 46.448 936.085 45.4756L926.782 42.5583C926.423 42.456 924.808 41.9698 921.938 41.0997C919.119 40.2296 916.684 38.6943 914.634 36.4935C912.634 34.2416 911.635 31.5291 911.635 28.3559C911.635 25.4899 912.378 22.9821 913.865 20.8325C915.402 18.6318 917.53 16.9428 920.246 15.7657C923.014 14.5886 926.243 14 929.934 14C936.136 14 941.031 15.5354 944.62 18.6062C948.259 21.6258 950.284 25.9761 950.694 31.657H944.004C943.748 27.8697 942.364 24.9525 939.853 22.9053C937.341 20.8581 933.932 19.8345 929.627 19.8345C926.192 19.8345 923.399 20.5766 921.246 22.0608C919.144 23.4939 918.093 25.4899 918.093 28.0489C918.093 29.8401 918.606 31.2988 919.631 32.4247C920.708 33.4995 921.784 34.2416 922.86 34.651C923.937 35.0605 925.936 35.7258 928.858 36.6471L937.546 39.334C940.621 40.3064 943.184 41.3044 945.235 42.328C947.285 43.3004 949.028 44.7591 950.463 46.7039C951.898 48.6487 952.616 51.1821 952.616 54.3041C952.616 59.0126 950.899 62.7232 947.464 65.4357C944.081 68.097 939.417 69.4277 933.471 69.4277Z" fill="#D9D9D9"/>
<path d="M989.223 68.5833H982.765V20.7557H964.158V14.8445H1007.83V20.7557H989.223V68.5833Z" fill="#D9D9D9"/>
<path d="M402.444 139.869H365V86.1306H401.752V92.0419H371.382V109.008H398.677V114.766H371.382V133.958H402.444V139.869Z" fill="#D9D9D9"/>
<path d="M426.902 139.869H420.443V86.1306H427.824L458.272 130.657V86.1306H464.73V139.869H457.349L426.902 95.343V139.869Z" fill="#D9D9D9"/>
<path d="M506.718 139.869H500.259V92.0419H481.652V86.1306H525.324V92.0419H506.718V139.869Z" fill="#D9D9D9"/>
<path d="M579.66 139.869H542.216V86.1306H578.968V92.0419H548.598V109.008H575.893V114.766H548.598V133.958H579.66V139.869Z" fill="#D9D9D9"/>
<path d="M597.659 139.869V86.1306H622.186C625.518 86.1306 628.491 86.7704 631.105 88.0499C633.719 89.2782 635.744 91.0183 637.179 93.2702C638.615 95.5221 639.332 98.0811 639.332 100.947C639.332 104.12 638.333 106.961 636.334 109.469C634.386 111.976 631.772 113.742 628.491 114.766C631.362 115.533 633.309 117.299 634.335 120.063L641.793 139.869H634.873L627.953 121.214C627.543 120.088 626.876 119.218 625.954 118.604C625.082 117.99 624.006 117.683 622.725 117.683H604.118V139.869H597.659ZM622.494 111.925C625.723 111.925 628.235 110.953 630.029 109.008C631.874 107.063 632.797 104.581 632.797 101.561C632.797 98.5417 631.823 96.213 629.875 94.5753C627.978 92.8863 625.518 92.0419 622.494 92.0419H604.118V111.925H622.494Z" fill="#D9D9D9"/>
<path d="M679.804 139.869H673.346V92.0419H654.739V86.1306H698.411V92.0419H679.804V139.869Z" fill="#D9D9D9"/>
<path d="M709.951 139.869H703.262L725.405 86.1306H731.941L754.161 139.869H747.472L741.167 124.515H716.256L709.951 139.869ZM728.711 94.345L718.716 118.681H738.707L728.711 94.345Z" fill="#D9D9D9"/>
<path d="M776.979 139.869H770.521V86.1306H776.979V139.869Z" fill="#D9D9D9"/>
<path d="M804.19 139.869H797.731V86.1306H805.113L835.56 130.657V86.1306H842.019V139.869H834.637L804.19 95.343V139.869Z" fill="#D9D9D9"/>
<path d="M869.244 139.869H862.785V86.1306H870.859L889.85 132.192L908.764 86.1306H916.914V139.869H910.456V97.339L892.925 139.869H886.697L869.244 97.4925V139.869Z" fill="#D9D9D9"/>
<path d="M975.12 139.869H937.675V86.1306H974.428V92.0419H944.057V109.008H971.352V114.766H944.057V133.958H975.12V139.869Z" fill="#D9D9D9"/>
<path d="M999.577 139.869H993.118V86.1306H1000.5L1030.95 130.657V86.1306H1037.41V139.869H1030.02L999.577 95.343V139.869Z" fill="#D9D9D9"/>
<path d="M1079.39 139.869H1072.93V92.0419H1054.33V86.1306H1098V92.0419H1079.39V139.869Z" fill="#D9D9D9"/>
<path d="M451.126 212C445.744 212 441.054 210.823 437.055 208.469C433.109 206.114 430.084 202.839 427.983 198.642C425.881 194.394 424.83 189.558 424.83 184.133C424.83 178.81 425.881 174.076 427.983 169.93C430.084 165.733 433.109 162.458 437.055 160.104C441.054 157.749 445.744 156.572 451.126 156.572C457.943 156.572 463.582 158.466 468.041 162.253C472.5 166.041 475.32 171.312 476.499 178.068H469.809C468.836 173.155 466.683 169.342 463.351 166.629C460.07 163.865 455.995 162.484 451.126 162.484C447.128 162.484 443.668 163.379 440.746 165.17C437.824 166.911 435.569 169.418 433.98 172.694C432.391 175.918 431.596 179.731 431.596 184.133C431.596 190.991 433.339 196.365 436.825 200.254C440.31 204.144 445.077 206.089 451.126 206.089C456.149 206.089 460.25 204.758 463.428 202.097C466.657 199.435 468.784 195.571 469.809 190.504H476.499C475.32 197.465 472.552 202.788 468.195 206.473C463.838 210.158 458.148 212 451.126 212Z" fill="#D9D9D9"/>
<path d="M518.273 212C513.199 212 508.688 210.874 504.741 208.622C500.845 206.319 497.795 203.069 495.591 198.872C493.438 194.624 492.362 189.711 492.362 184.133C492.362 178.81 493.387 174.076 495.438 169.93C497.539 165.733 500.538 162.458 504.433 160.104C508.38 157.749 512.993 156.572 518.273 156.572C523.399 156.572 527.935 157.724 531.882 160.027C535.829 162.279 538.879 165.503 541.032 169.7C543.236 173.845 544.338 178.656 544.338 184.133C544.338 189.506 543.287 194.317 541.186 198.565C539.084 202.762 536.06 206.063 532.113 208.469C528.217 210.823 523.604 212 518.273 212ZM518.273 206.089C522.22 206.089 525.654 205.193 528.576 203.402C531.549 201.61 533.804 199.077 535.342 195.802C536.931 192.475 537.726 188.585 537.726 184.133C537.726 179.731 536.931 175.918 535.342 172.694C533.753 169.418 531.498 166.911 528.576 165.17C525.654 163.379 522.22 162.484 518.273 162.484C514.377 162.484 510.969 163.379 508.047 165.17C505.125 166.911 502.87 169.418 501.281 172.694C499.743 175.918 498.974 179.731 498.974 184.133C498.974 188.585 499.743 192.475 501.281 195.802C502.87 199.077 505.125 201.61 508.047 203.402C510.969 205.193 514.377 206.089 518.273 206.089Z" fill="#D9D9D9"/>
<path d="M586.105 212C581.031 212 576.52 210.874 572.573 208.622C568.677 206.319 565.627 203.069 563.423 198.872C561.271 194.624 560.194 189.711 560.194 184.133C560.194 178.81 561.219 174.076 563.27 169.93C565.371 165.733 568.37 162.458 572.265 160.104C576.212 157.749 580.826 156.572 586.105 156.572C591.231 156.572 595.767 157.724 599.714 160.027C603.661 162.279 606.711 165.503 608.864 169.7C611.068 173.845 612.17 178.656 612.17 184.133C612.17 189.506 611.119 194.317 609.018 198.565C606.916 202.762 603.892 206.063 599.945 208.469C596.049 210.823 591.436 212 586.105 212ZM586.105 206.089C590.052 206.089 593.486 205.193 596.408 203.402C599.381 201.61 601.636 199.077 603.174 195.802C604.763 192.475 605.558 188.585 605.558 184.133C605.558 179.731 604.763 175.918 603.174 172.694C601.585 169.418 599.33 166.911 596.408 165.17C593.486 163.379 590.052 162.484 586.105 162.484C582.209 162.484 578.801 163.379 575.879 165.17C572.957 166.911 570.702 169.418 569.113 172.694C567.575 175.918 566.806 179.731 566.806 184.133C566.806 188.585 567.575 192.475 569.113 195.802C570.702 199.077 572.957 201.61 575.879 203.402C578.801 205.193 582.209 206.089 586.105 206.089Z" fill="#D9D9D9"/>
<path d="M630.487 211.156V157.417H655.936C659.576 157.417 662.677 158.133 665.24 159.566C667.854 160.948 669.827 162.842 671.16 165.247C672.493 167.602 673.159 170.237 673.159 173.155C673.159 176.686 672.39 179.706 670.852 182.213C669.366 184.721 667.316 186.64 664.701 187.971C662.087 189.251 659.166 189.89 655.936 189.89H636.945V211.156H630.487ZM656.244 183.979C659.473 183.979 661.985 182.955 663.779 180.908C665.624 178.861 666.547 176.277 666.547 173.155C666.547 170.084 665.573 167.678 663.625 165.938C661.677 164.198 659.217 163.328 656.244 163.328H636.945V183.979H656.244Z" fill="#D9D9D9"/>
<path d="M727.879 211.156H690.435V157.417H727.187V163.328H696.816V180.294H724.111V186.052H696.816V205.244H727.879V211.156Z" fill="#D9D9D9"/>
<path d="M745.878 211.156V157.417H770.405C773.736 157.417 776.709 158.057 779.324 159.336C781.938 160.564 783.962 162.304 785.398 164.556C786.833 166.808 787.551 169.367 787.551 172.233C787.551 175.406 786.551 178.247 784.552 180.755C782.604 183.263 779.99 185.028 776.709 186.052C779.58 186.82 781.528 188.585 782.553 191.349L790.011 211.156H783.091L776.171 192.5C775.761 191.375 775.095 190.504 774.172 189.89C773.301 189.276 772.224 188.969 770.943 188.969H752.336V211.156H745.878ZM770.712 183.211C773.941 183.211 776.453 182.239 778.247 180.294C780.092 178.349 781.015 175.867 781.015 172.847C781.015 169.828 780.041 167.499 778.093 165.861C776.197 164.172 773.736 163.328 770.712 163.328H752.336V183.211H770.712Z" fill="#D9D9D9"/>
<path d="M809.108 211.156H802.419L824.563 157.417H831.098L853.319 211.156H846.629L840.325 195.802H815.413L809.108 211.156ZM827.869 165.631L817.874 189.967H837.864L827.869 165.631Z" fill="#D9D9D9"/>
<path d="M883.24 211.156H876.782V163.328H858.175V157.417H901.847V163.328H883.24V211.156Z" fill="#D9D9D9"/>
<path d="M925.197 211.156H918.739V157.417H925.197V211.156Z" fill="#D9D9D9"/>
<path d="M968.785 211.156H961.865L940.952 157.417H947.872L965.325 202.25L982.241 157.417H989.084L968.785 211.156Z" fill="#D9D9D9"/>
<path d="M1042.29 211.156H1004.85V157.417H1041.6V163.328H1011.23V180.294H1038.52V186.052H1011.23V205.244H1042.29V211.156Z" fill="#D9D9D9"/>
</svg>
