<svg width="549" height="143" viewBox="0 0 549 143" fill="none" xmlns="http://www.w3.org/2000/svg">
<path fill-rule="evenodd" clip-rule="evenodd" d="M0 104.732H185.39V143H0V104.732Z" fill="black"/>
<path d="M216.368 74.5212V65.0368H224.829C229.077 65.0368 232.503 62.4346 232.503 57.5726C232.503 53.7378 229.831 50.5536 224.829 50.5536H213.49V74.5212H216.368ZM216.368 53.19H224.966C227.501 53.19 229.557 54.7308 229.557 57.5726C229.557 60.2433 227.947 62.4004 224.966 62.4004H216.368V53.19ZM256.884 74.5212V71.8847H243.044V63.3249H255.205V60.7569H243.044V53.19H256.575V50.5536H240.201V74.5212H256.884ZM275.35 74.8978C282.613 74.8978 286.963 69.6592 286.963 62.4689C286.963 55.0389 282.27 50.1769 275.35 50.1769C268.156 50.1769 263.806 55.3471 263.806 62.4689C263.806 70.0358 268.499 74.8978 275.35 74.8978ZM275.35 72.2614C270.075 72.2614 266.752 68.4608 266.752 62.4689C266.752 56.5455 270.075 52.8134 275.35 52.8134C280.66 52.8134 284.017 56.5455 284.017 62.4689C284.017 68.4608 280.694 72.2614 275.35 72.2614ZM298.002 74.5212V65.0368H306.463C310.711 65.0368 314.137 62.4346 314.137 57.5726C314.137 53.7378 311.465 50.5536 306.463 50.5536H295.124V74.5212H298.002ZM298.002 53.19H306.6C309.135 53.19 311.191 54.7308 311.191 57.5726C311.191 60.2433 309.581 62.4004 306.6 62.4004H298.002V53.19ZM337.558 74.5212V71.8847H324.712V50.5536H321.835V74.5212H337.558ZM361.949 74.5212V71.8847H348.11V63.3249H360.271V60.7569H348.11V53.19H361.641V50.5536H345.266V74.5212H361.949ZM374.866 48.8073L372.434 48.0541L368.837 59.5243L371.132 60.2433L374.866 48.8073ZM390.54 74.8978C395.849 74.8978 399.07 72.3641 399.07 68.1526C399.07 63.633 395.404 62.4346 392.355 61.4759L388.484 60.2776C386.429 59.627 383.688 59.0792 383.688 56.4427C383.688 54.1487 385.812 52.7791 388.827 52.7791C392.629 52.7791 394.993 54.6623 395.233 58.052H398.213C397.836 52.9503 394.445 50.1769 388.964 50.1769C383.997 50.1769 380.811 52.7106 380.811 56.5797C380.811 61.2705 385.641 62.2977 387.559 62.914L391.704 64.2151C394 64.9341 396.123 65.8586 396.123 68.2896C396.123 70.7891 394.205 72.2956 390.54 72.2956C386.326 72.2956 383.414 70.3439 383.072 67.2624H380.057C380.365 71.782 384.51 74.8978 390.54 74.8978ZM420.859 74.5212V63.5988H433.294V60.9623H420.859V53.19H434.322V50.5536H417.981V74.5212H420.859ZM444.958 74.5212V50.5536H442.08V74.5212H444.958ZM463.488 74.8978C468.798 74.8978 472.018 72.3641 472.018 68.1526C472.018 63.633 468.353 62.4346 465.304 61.4759L461.433 60.2776C459.378 59.627 456.637 59.0792 456.637 56.4427C456.637 54.1487 458.761 52.7791 461.776 52.7791C465.578 52.7791 467.942 54.6623 468.182 58.052H471.162C470.785 52.9503 467.394 50.1769 461.913 50.1769C456.945 50.1769 453.759 52.7106 453.759 56.5797C453.759 61.2705 458.59 62.2977 460.508 62.914L464.653 64.2151C466.948 64.9341 469.072 65.8586 469.072 68.2896C469.072 70.7891 467.154 72.2956 463.488 72.2956C459.275 72.2956 456.363 70.3439 456.02 67.2624H453.006C453.314 71.782 457.459 74.8978 463.488 74.8978ZM488.329 74.5212V53.19H496.619V50.5536H477.161V53.19H485.451V74.5212H488.329ZM230.173 106.747V104.11H216.334V95.5502H228.495V92.9823H216.334V85.4153H229.865V82.7789H213.49V106.747H230.173ZM241.071 106.747V86.8876L254.637 106.747H257.925V82.7789H255.048V102.638L241.482 82.7789H238.194V106.747H241.071ZM276.632 106.747V85.4153H284.922V82.7789H265.464V85.4153H273.754V106.747H276.632ZM309.131 106.747V104.11H295.292V95.5502H307.453V92.9823H295.292V85.4153H308.823V82.7789H292.448V106.747H309.131ZM320.029 106.747V96.8513H328.319C329.45 96.8513 330.272 97.3991 330.649 98.4263L333.732 106.747H336.815L333.492 97.9127C333.288 97.3338 332.944 96.8146 332.489 96.4021C332.035 95.9897 331.485 95.6969 330.888 95.5502C333.8 94.6258 335.719 92.229 335.719 89.3871C335.719 85.4838 332.601 82.7789 328.079 82.7789H317.151V106.747H320.029ZM320.029 85.4153H328.216C330.82 85.4153 332.807 86.8534 332.807 89.661C332.807 92.229 331.197 94.2834 328.216 94.2834H320.029V85.4153ZM353.75 106.747V85.4153H362.04V82.7789H342.582V85.4153H350.872V106.747H353.75ZM367.182 106.747L369.992 99.8986H381.091L383.9 106.747H386.88L376.98 82.7789H374.068L364.202 106.747H367.182ZM375.541 86.4425L379.995 97.2964H371.088L375.541 86.4425ZM397.046 106.747V82.7789H394.169V106.747H397.046ZM409.169 106.747V86.8876L422.735 106.747H426.024V82.7789H423.146V102.638L409.58 82.7789H406.292V106.747H409.169ZM438.155 106.747V87.8463L445.931 106.747H448.706L456.516 87.7779V106.747H459.394V82.7789H455.763L447.335 103.323L438.874 82.7789H435.277V106.747H438.155ZM485.326 106.747V104.11H471.486V95.5502H483.648V92.9823H471.486V85.4153H485.018V82.7789H468.643V106.747H485.326ZM496.224 106.747V86.8876L509.789 106.747H513.078V82.7789H510.201V102.638L496.635 82.7789H493.346V106.747H496.224ZM531.784 106.747V85.4153H540.075V82.7789H520.617V85.4153H528.907V106.747H531.784ZM224.11 139.348C230.379 139.348 234.353 135.993 235.415 129.761H232.434C231.509 134.281 228.598 136.712 224.11 136.712C218.732 136.712 215.409 133.048 215.409 126.92C215.409 120.996 218.732 117.264 224.11 117.264C228.461 117.264 231.544 119.832 232.434 124.215H235.415C234.387 118.189 230.208 114.628 224.11 114.628C216.745 114.628 212.394 119.798 212.394 126.92C212.394 134.178 216.745 139.348 224.11 139.348ZM254.026 139.348C261.289 139.348 265.639 134.11 265.639 126.92C265.639 119.49 260.946 114.628 254.026 114.628C246.832 114.628 242.482 119.798 242.482 126.92C242.482 134.486 247.175 139.348 254.026 139.348ZM254.026 136.712C248.751 136.712 245.428 132.911 245.428 126.92C245.428 120.996 248.751 117.264 254.026 117.264C259.336 117.264 262.693 120.996 262.693 126.92C262.693 132.911 259.37 136.712 254.026 136.712ZM284.249 139.348C291.511 139.348 295.862 134.11 295.862 126.92C295.862 119.49 291.169 114.628 284.249 114.628C277.055 114.628 272.704 119.798 272.704 126.92C272.704 134.486 277.397 139.348 284.249 139.348ZM284.249 136.712C278.973 136.712 275.65 132.911 275.65 126.92C275.65 120.996 278.973 117.264 284.249 117.264C289.559 117.264 292.916 120.996 292.916 126.92C292.916 132.911 289.593 136.712 284.249 136.712ZM306.901 138.972V129.488H315.362C319.61 129.488 323.036 126.885 323.036 122.023C323.036 118.189 320.364 115.004 315.362 115.004H304.023V138.972H306.901ZM306.901 117.641H315.499C318.034 117.641 320.089 119.181 320.089 122.023C320.089 124.694 318.479 126.851 315.499 126.851H306.901V117.641ZM347.416 138.972V136.335H333.577V127.776H345.738V125.208H333.577V117.641H347.108V115.004H330.733V138.972H347.416ZM358.312 138.972V129.077H366.602C367.733 129.077 368.555 129.624 368.932 130.652L372.015 138.972H375.098L371.775 130.138C371.571 129.559 371.227 129.04 370.772 128.628C370.318 128.215 369.768 127.922 369.171 127.776C372.083 126.851 374.002 124.454 374.002 121.612C374.002 117.709 370.884 115.004 366.362 115.004H355.434V138.972H358.312ZM358.312 117.641H366.499C369.103 117.641 371.09 119.079 371.09 121.886C371.09 124.454 369.48 126.509 366.499 126.509H358.312V117.641ZM383.608 138.972L386.417 132.124H397.516L400.325 138.972H403.305L393.405 115.004H390.493L380.627 138.972H383.608ZM391.966 118.668L396.42 129.522H387.513L391.966 118.668ZM416.637 138.972V117.641H424.927V115.004H405.469V117.641H413.76V138.972H416.637ZM435.331 138.972V115.004H432.454V138.972H435.331ZM454.751 138.972L463.795 115.004H460.746L453.209 135L445.433 115.004H442.35L451.668 138.972H454.751ZM487.5 138.972V136.335H473.661V127.776H485.822V125.208H473.661V117.641H487.192V115.004H470.817V138.972H487.5Z" fill="black"/>
<path fill-rule="evenodd" clip-rule="evenodd" d="M185.384 92.6479C185.388 92.3136 185.39 91.9772 185.39 91.6408C185.39 41.0289 143.889 0 92.6949 0C41.5011 0 0 41.0289 0 91.6408C0 91.9772 0 92.3136 0.00604532 92.6479H34.688C34.6824 92.3122 34.6797 91.9765 34.68 91.6408C34.68 59.9653 60.6547 34.2858 92.6949 34.2858C124.735 34.2858 150.71 59.9653 150.71 91.6408C150.71 91.9772 150.708 92.3136 150.702 92.6479H185.384Z" fill="black"/>
</svg>
